<svg width="85" height="73" viewBox="0 0 85 73" fill="none" xmlns="http://www.w3.org/2000/svg">
<path d="M42.208 70.8151C16.6737 70.8151 2.37451 50.8983 2.37451 30.9816C16.6737 30.9816 24.8447 37.6205 30.9729 44.2594M42.208 70.8151C67.7423 70.8151 82.0415 50.8983 82.0415 30.9816C67.7423 30.9816 59.5713 37.6205 53.4431 44.2594M42.208 70.8151C41.1866 55.3243 33.0157 46.4724 30.9729 44.2594M42.208 70.8151C43.2294 55.3243 51.4004 46.4724 53.4431 44.2594M30.9729 44.2594L42.208 30.9816L53.4431 44.2594" stroke="#E16463" stroke-width="4"/>
<path d="M42.2082 0L43.6606 5.60455C44.0101 6.95308 45.036 8.02267 46.3688 8.42802L51.4006 9.95837L46.3688 11.4887C45.036 11.8941 44.0101 12.9637 43.6606 14.3122L42.2082 19.9167L40.7558 14.3122C40.4063 12.9637 39.3804 11.8941 38.0476 11.4887L33.0159 9.95837L38.0476 8.42802C39.3804 8.02267 40.4063 6.95308 40.7558 5.60455L42.2082 0Z" fill="#E16463"/>
</svg>
